# xmcd CD database file
#
# Track frame offsets:
#	150
#	21001
#	41101
#	64858
#	85649
#	105760
#
# Disc length: 1723 seconds
#
# Revision: 2
# Processed by: cddbd v1.5.2PL0 Copyright (c) Steve Scherf et al.
# Submitted via: CDex 1.70beta2
#
DISCID=3c06b906
DTITLE=VALSHE - AFFLICT/Fragment
DYEAR=1900
DGENRE=Vocal
TTITLE0=AFFLICT
TTITLE1=Fragment
TTITLE2=蒼ノ夏雨
TTITLE3=AFFLICT-Instrumental-
TTITLE4=Fragment-Instrumental-
TTITLE5=蒼ノ夏雨-Instrumental-
EXTD=
EXTT0=
EXTT1=
EXTT2=
EXTT3=
EXTT4=
EXTT5=
PLAYORDER=
